<svg xmlns="http://www.w3.org/2000/svg" viewBox="0 0 128 128" width="128" height="128">
  <defs>
    <linearGradient id="grad" x1="0%" y1="0%" x2="100%" y2="100%">
      <stop offset="0%" style="stop-color:#cc785c"/>
      <stop offset="100%" style="stop-color:#e8956d"/>
    </linearGradient>
    <filter id="shadow">
      <feDropShadow dx="0" dy="4" stdDeviation="8" flood-color="rgba(0,0,0,0.3)"/>
    </filter>
  </defs>
  <circle cx="64" cy="64" r="60" fill="url(#grad)" filter="url(#shadow)"/>
  <!-- Letter C stylized -->
  <path d="M64 28C48.54 28 36 40.54 36 56c0 9.33 4.67 17.6 11.83 22.67C44.54 81.13 42 85.33 42 90.17V96h40v-5.83c0-4.84-2.54-9.04-5.83-11.5C83.33 73.6 88 65.33 88 56c0-15.46-12.54-28-24-28z" fill="none"/>
  <!-- Person/Avatar icon -->
  <circle cx="64" cy="52" r="14" fill="white"/>
  <path d="M64 70c-11.67 0-22 5.83-22 10.5V86h44v-5.5C86 75.83 75.67 70 64 70z" fill="white"/>
</svg>
